<svg width="380" height="217" viewBox="0 0 380 217" fill="none" xmlns="http://www.w3.org/2000/svg">
<g filter="url(#filter0_dd_1_20856)">
<path d="M195.241 0C239.915 0 278.279 27.008 294.9 65.5859C297.79 65.2521 300.73 65.0801 303.709 65.0801C345.642 65.0801 379.637 99.0743 379.637 141.008C379.637 182.614 346.172 216.403 304.69 216.929L303.709 216.936H86.7744L85.6523 216.928C38.2454 216.327 5.11447e-05 177.711 0 130.161C0 82.2372 38.8504 43.3867 86.7744 43.3867C93.655 43.3867 100.348 44.1896 106.767 45.7031C126.423 18.0444 158.725 0.000118145 195.241 0Z" fill="#F9FAFB"/>
<circle cx="86.774" cy="130.161" r="86.774" fill="url(#paint0_linear_1_20856)"/>
<circle cx="195.242" cy="108.468" r="108.468" fill="url(#paint1_linear_1_20856)"/>
<circle cx="303.71" cy="141.008" r="75.9273" fill="url(#paint2_linear_1_20856)"/>
</g>
<defs>
<filter x="-43.6364" y="-2.86102e-06" width="466.909" height="304.208" filterUnits="userSpaceOnUse" color-interpolation-filters="sRGB">
<feFlood flood-opacity="0" result="BackgroundImageFix"/>
<feColorMatrix in="SourceAlpha" type="matrix" values="0 0 0 0 0 0 0 0 0 0 0 0 0 0 0 0 0 0 127 0" result="hardAlpha"/>
<feMorphology radius="8.72727" operator="erode" in="SourceAlpha" result="effect1_dropShadow_1_20856"/>
<feOffset dy="17.4545"/>
<feGaussianBlur stdDeviation="8.72727"/>
<feComposite in2="hardAlpha" operator="out"/>
<feColorMatrix type="matrix" values="0 0 0 0 0.0627451 0 0 0 0 0.0941176 0 0 0 0 0.156863 0 0 0 0.03 0"/>
<feBlend mode="normal" in2="BackgroundImageFix" result="effect1_dropShadow_1_20856"/>
<feColorMatrix in="SourceAlpha" type="matrix" values="0 0 0 0 0 0 0 0 0 0 0 0 0 0 0 0 0 0 127 0" result="hardAlpha"/>
<feMorphology radius="8.72727" operator="erode" in="SourceAlpha" result="effect2_dropShadow_1_20856"/>
<feOffset dy="43.6364"/>
<feGaussianBlur stdDeviation="26.1818"/>
<feComposite in2="hardAlpha" operator="out"/>
<feColorMatrix type="matrix" values="0 0 0 0 0.0627451 0 0 0 0 0.0941176 0 0 0 0 0.156863 0 0 0 0.08 0"/>
<feBlend mode="normal" in2="effect1_dropShadow_1_20856" result="effect2_dropShadow_1_20856"/>
<feBlend mode="normal" in="SourceGraphic" in2="effect2_dropShadow_1_20856" result="shape"/>
</filter>
<linearGradient x1="20.144" y1="72.8281" x2="173.548" y2="216.935" gradientUnits="userSpaceOnUse">
<stop stop-color="#D0D5DD"/>
<stop offset="0.350715" stop-color="white" stop-opacity="0"/>
</linearGradient>
<linearGradient x1="111.954" y1="36.8015" x2="303.71" y2="216.935" gradientUnits="userSpaceOnUse">
<stop stop-color="#D0D5DD"/>
<stop offset="0.350715" stop-color="white" stop-opacity="0"/>
</linearGradient>
<linearGradient x1="245.408" y1="90.8416" x2="379.637" y2="216.935" gradientUnits="userSpaceOnUse">
<stop stop-color="#D0D5DD"/>
<stop offset="0.350715" stop-color="white" stop-opacity="0"/>
</linearGradient>
</defs>
</svg>