<svg width="62" height="62" viewBox="0 0 62 62" fill="none" xmlns="http://www.w3.org/2000/svg">
<path d="M12.5639 9.75459C14.0074 4.36728 19.5449 1.17021 24.9322 2.61374L52.2451 9.9322C57.6324 11.3757 60.8295 16.9132 59.386 22.3005L52.0675 49.6134C50.624 55.0007 45.0865 58.1978 39.6992 56.7543L12.3863 49.4358C6.99898 47.9923 3.80191 42.4548 5.24544 37.0675L12.5639 9.75459Z" fill="#0042BB"/>
<g data-figma-bg-blur-radius="16">
<path d="M0 29.6842C0 24.0284 0 21.2005 1.10069 19.0402C2.06889 17.14 3.61379 15.5951 5.51399 14.6269C7.67422 13.5262 10.5021 13.5262 16.1579 13.5262H32.3158C37.9716 13.5262 40.7995 13.5262 42.9598 14.6269C44.86 15.5951 46.4049 17.14 47.3731 19.0402C48.4738 21.2005 48.4738 24.0284 48.4738 29.6842V45.8421C48.4738 51.4979 48.4738 54.3258 47.3731 56.486C46.4049 58.3862 44.86 59.9311 42.9598 60.8993C40.7995 62 37.9716 62 32.3158 62H16.1579C10.5021 62 7.67422 62 5.51399 60.8993C3.61379 59.9311 2.06889 58.3862 1.10069 56.486C0 54.3258 0 51.4979 0 45.8421V29.6842Z" fill="white" fill-opacity="0.85"/>
<path d="M16.1579 14.0312H32.3158C35.1521 14.0312 37.249 14.0318 38.9076 14.1673C40.5601 14.3023 41.7332 14.5687 42.7301 15.0765C44.5353 15.9963 46.0037 17.4647 46.9235 19.2699C47.4313 20.2668 47.6977 21.4399 47.8327 23.0924C47.9682 24.751 47.9688 26.8479 47.9688 29.6842V45.8421C47.9688 48.6783 47.9682 50.7752 47.8327 52.4338C47.6977 54.0863 47.4313 55.2594 46.9235 56.2564C46.0037 58.0615 44.5353 59.5299 42.7301 60.4497C41.7332 60.9576 40.5601 61.224 38.9076 61.359C37.249 61.4945 35.1521 61.4951 32.3158 61.4951H16.1579C13.3217 61.4951 11.2248 61.4945 9.56615 61.359C7.91369 61.224 6.74059 60.9576 5.74364 60.4497C3.93845 59.5299 2.47009 58.0615 1.55031 56.2564C1.04243 55.2594 0.776048 54.0863 0.641031 52.4338C0.505514 50.7752 0.504935 48.6783 0.504935 45.8421V29.6842C0.504935 26.8479 0.505514 24.751 0.641031 23.0924C0.776048 21.4399 1.04243 20.2668 1.55031 19.2699C2.47009 17.4647 3.93845 15.9963 5.74364 15.0765C6.74059 14.5687 7.91369 14.3023 9.56615 14.1673C11.2248 14.0318 13.3217 14.0312 16.1579 14.0312Z" stroke="white" stroke-opacity="0.6"/>
<path d="M21.4223 40.2877C21.7376 40.888 22.3672 41.2975 23.0924 41.2975H25.2467C26.3622 41.2975 27.2665 40.3933 27.2665 39.2778C27.2665 38.1623 26.3622 37.2581 25.2467 37.2581H23.227C22.1115 37.2581 21.2073 36.3538 21.2073 35.2383C21.2073 34.1228 22.1115 33.2186 23.227 33.2186H25.3814C26.1066 33.2186 26.7361 33.6281 27.0514 34.2284M24.2369 31.7038V33.2186M24.2369 41.2975V42.8123M32.3158 37.763C32.3158 42.7199 26.909 46.3251 24.9418 47.4728C24.7182 47.6032 24.6064 47.6684 24.4486 47.7022C24.3262 47.7285 24.1476 47.7285 24.0251 47.7022C23.8674 47.6684 23.7556 47.6032 23.532 47.4728C21.5647 46.3251 16.1579 42.7199 16.1579 37.763V32.9334C16.1579 32.126 16.1579 31.7223 16.29 31.3753C16.4066 31.0687 16.5962 30.7952 16.8423 30.5783C17.1208 30.3328 17.4988 30.1911 18.2548 29.9076L23.6695 27.877C23.8795 27.7983 23.9845 27.7589 24.0925 27.7433C24.1882 27.7295 24.2855 27.7295 24.3813 27.7433C24.4893 27.7589 24.5943 27.7983 24.8042 27.877L30.2189 29.9076C30.9749 30.1911 31.3529 30.3328 31.6315 30.5783C31.8776 30.7952 32.0671 31.0687 32.1838 31.3753C32.3158 31.7223 32.3158 32.126 32.3158 32.9334V37.763Z" stroke="white" stroke-width="2.01974" stroke-linecap="round" stroke-linejoin="round"/>
</g>
<defs>
<clipPath id="bgblur_0_0_384_clip_path" transform="translate(16.1579 2.63168)"><path d="M0 29.6842C0 24.0284 0 21.2005 1.10069 19.0402C2.06889 17.14 3.61379 15.5951 5.51399 14.6269C7.67422 13.5262 10.5021 13.5262 16.1579 13.5262H32.3158C37.9716 13.5262 40.7995 13.5262 42.9598 14.6269C44.86 15.5951 46.4049 17.14 47.3731 19.0402C48.4738 21.2005 48.4738 24.0284 48.4738 29.6842V45.8421C48.4738 51.4979 48.4738 54.3258 47.3731 56.486C46.4049 58.3862 44.86 59.9311 42.9598 60.8993C40.7995 62 37.9716 62 32.3158 62H16.1579C10.5021 62 7.67422 62 5.51399 60.8993C3.61379 59.9311 2.06889 58.3862 1.10069 56.486C0 54.3258 0 51.4979 0 45.8421V29.6842Z"/>
</clipPath></defs>
</svg>
